<?xml version="1.0" encoding="UTF-8"?>
<svg width="532px" height="220px" viewBox="0 0 532 220" version="1.1" xmlns="http://www.w3.org/2000/svg" xmlns:xlink="http://www.w3.org/1999/xlink">
    <!-- Generator: Sketch 58 (84663) - https://sketch.com -->
    <title>me</title>
    <desc>Created with Sketch.</desc>
    <g id="insta_stories" stroke="none" stroke-width="1" fill="none" fill-rule="evenodd">
        <path d="M53.609375,4.671875 L55.3671875,28.3046875 C70.3412207,9.9452207 90.5884141,0.765625 116.109375,0.765625 C143.323053,0.765625 162.007762,11.5077051 172.164063,32.9921875 C187.007887,11.5077051 208.166529,0.765625 235.640625,0.765625 C258.557406,0.765625 275.614527,7.43873535 286.8125,20.7851562 C298.010473,34.1315771 303.609375,54.2160117 303.609375,81.0390625 L303.609375,216 L246.96875,216 L246.96875,81.234375 C246.96875,69.2551484 244.625023,60.4987256 239.9375,54.9648438 C235.249977,49.4309619 226.98183,46.6640625 215.132812,46.6640625 C198.205645,46.6640625 186.487012,54.7368984 179.976562,70.8828125 L180.171875,216 L123.726562,216 L123.726562,81.4296875 C123.726562,69.190043 121.317732,60.3359648 116.5,54.8671875 C111.682268,49.3984102 103.479225,46.6640625 91.890625,46.6640625 C75.8749199,46.6640625 64.2864941,53.3046211 57.125,66.5859375 L57.125,216 L0.6796875,216 L0.6796875,4.671875 L53.609375,4.671875 Z M437.984375,0.765625 C466.89077,0.765625 489.644448,9.88011719 506.246094,28.109375 C522.847739,46.3386328 531.148438,72.1847285 531.148438,105.648438 L531.148438,128.695312 L396.578125,128.695312 C398.401051,142.497465 403.902298,153.565062 413.082031,161.898438 C422.261765,170.231813 433.882742,174.398438 447.945312,174.398438 C469.690213,174.398438 486.68223,166.520912 498.921875,150.765625 L526.65625,181.820312 C518.192666,193.799539 506.734447,203.141894 492.28125,209.847656 C477.828053,216.553419 461.812588,219.90625 444.234375,219.90625 C413.244637,219.90625 388.017024,210.401137 368.550781,191.390625 C349.084538,172.380113 339.351562,147.054846 339.351562,115.414062 L339.351562,109.945312 C339.351562,88.721248 343.453084,69.7435732 351.65625,53.0117188 C359.859416,36.2798643 371.480394,23.3893682 386.519531,14.3398438 C401.558669,5.29031934 418.713445,0.765625 437.984375,0.765625 Z M437.789062,46.46875 C426.59109,46.46875 417.509149,50.2447539 410.542969,57.796875 C403.576788,65.3489961 399.117197,76.1561797 397.164062,90.21875 L397.164062,90.21875 L475.679688,90.21875 L475.679688,85.7265625 C475.41927,73.2265 472.033887,63.5586279 465.523438,56.7226562 C459.012988,49.8866846 449.768289,46.46875 437.789062,46.46875 Z" id="me" fill="#353535" fill-rule="nonzero"></path>
    </g>
</svg>